<?xml version="1.0" encoding="UTF-8" standalone="no"?>
<!-- Created with Inkscape (http://www.inkscape.org/) -->

<svg
   width="452.87808"
   height="391.38785"
   viewBox="0 0 119.82398 103.55469"
   version="1.1"
   id="svg1"
   xml:space="preserve"
   sodipodi:docname="logo.svg"
   xmlns:inkscape="http://www.inkscape.org/namespaces/inkscape"
   xmlns:sodipodi="http://sodipodi.sourceforge.net/DTD/sodipodi-0.dtd"
   xmlns="http://www.w3.org/2000/svg"
   xmlns:svg="http://www.w3.org/2000/svg"><sodipodi:namedview
     id="namedview1"
     pagecolor="#ffffff"
     bordercolor="#000000"
     borderopacity="0.25"
     inkscape:showpageshadow="2"
     inkscape:pageopacity="0.0"
     inkscape:pagecheckerboard="0"
     inkscape:deskcolor="#d1d1d1"
     inkscape:document-units="px"><inkscape:page
       x="0"
       y="0"
       width="119.82398"
       height="103.55469"
       id="page2"
       margin="0"
       bleed="0" /></sodipodi:namedview><defs
     id="defs1" /><g
     inkscape:label="Layer 1"
     inkscape:groupmode="layer"
     id="layer1"
     transform="translate(-139.98663,-400.0226)"><path
       style="font-weight:900;font-size:35.9616px;font-family:'Adwaita Sans';-inkscape-font-specification:'Adwaita Sans Heavy';fill:#e6e1d4;fill-opacity:1;stroke-width:0.434872"
       d="m 189.33529,503.3657 c -0.79441,-0.34665 -1.58677,-1.10508 -1.90478,-1.82319 -0.26112,-0.58974 -2.07875,-6.89713 -8.4545,-29.33797 -0.94768,-3.33559 -2.79342,-9.82643 -4.1016,-14.42414 -1.30822,-4.59766 -3.49024,-12.26867 -4.84891,-17.04665 -1.35869,-4.77799 -2.52322,-8.78529 -2.58782,-8.90511 -0.15263,-0.28278 -0.004,-0.70018 -4.26983,11.93743 -1.99359,5.90487 -3.73924,11.03119 -3.87924,11.39179 -0.39488,1.01709 -0.96142,1.64884 -1.89566,2.11388 l -0.85722,0.42672 0.0346,-0.0677 c -8.92778,-6.1e-4 -13.59048,-0.0587 -14.00874,-0.17484 -0.80093,-0.22212 -1.88222,-1.19392 -2.26661,-2.03704 -0.43892,-0.96268 -0.40528,-2.46532 0.0755,-3.37537 0.49616,-0.93905 1.52254,-1.71163 2.57287,-1.93664 0.5582,-0.11951 4.58513,-0.2075 12.13049,-0.1789 l -2.12152,0.067 0.77157,-2.25376 c 0.42433,-1.23958 2.24629,-6.60558 4.04874,-11.92447 7.33412,-21.64261 6.52358,-19.43223 7.39504,-20.16627 0.76998,-0.64855 1.46313,-0.89621 2.50823,-0.89621 1.04554,0 1.73824,0.24766 2.50949,0.8973 0.79149,0.66664 1.03792,1.26489 2.1624,5.24936 0.55973,1.9833 2.37219,8.3635 4.02766,14.17823 6.35805,22.33188 10.11821,35.5432 11.74465,41.26443 0.92902,3.26796 1.73537,5.94176 1.79191,5.94176 0.0566,0 0.1885,-0.53477 0.2934,-1.18838 0.10509,-0.65356 0.37163,-2.22096 0.59283,-3.48309 0.22121,-1.26212 3.14161,-18.04243 6.48976,-37.28958 3.34813,-19.24718 6.20286,-35.63696 6.34386,-36.42173 0.45516,-2.53337 1.6108,-3.75611 3.65926,-3.87176 1.63676,-0.0925 2.93819,0.60068 3.6144,1.92478 0.16872,0.33033 1.38065,5.68707 2.69316,11.90383 2.62169,12.41757 5.85071,27.69851 6.23311,29.49722 0.13413,0.63105 0.47425,2.25375 0.75575,3.60602 0.28154,1.35225 0.5726,2.60617 0.64682,2.78648 0.13099,0.31822 0.26716,0.32647 4.64951,0.28183 l 4.51454,-0.0459 0.36939,-1.01943 c 1.43109,-3.94973 4.10006,-6.85419 7.95793,-8.66013 4.07868,-1.90925 9.40641,-1.75936 13.19818,0.37136 4.1004,2.30416 6.75722,5.87772 7.64803,10.28696 0.42117,2.0847 0.26968,5.3595 -0.33428,7.22676 -0.88307,2.73007 -2.04243,4.57371 -4.12635,6.5618 -2.67848,2.55531 -5.74027,3.84484 -9.57674,4.0335 -1.55378,0.0764 -2.19115,0.0302 -3.60986,-0.26233 -5.22786,-1.07745 -9.6111,-4.96209 -11.24301,-9.96415 l -0.28075,-0.86054 -6.50352,-0.006 c -6.19125,-0.004 -6.53899,-0.0187 -7.24194,-0.33797 -0.84469,-0.38258 -1.36096,-0.82583 -1.81333,-1.55695 -0.27111,-0.43825 -2.8718,-12.35095 -6.22334,-28.50685 -0.28055,-1.35225 -0.56361,-2.5925 -0.62903,-2.75612 -0.0707,-0.17687 -0.70535,3.07754 -1.56605,8.03159 -0.79587,4.58101 -1.77065,10.17311 -2.16611,12.42685 -0.39548,2.25377 -2.74983,15.76933 -5.23197,30.03455 -3.23045,18.56581 -4.60544,26.1178 -4.83833,26.57381 -0.36928,0.72311 -1.15671,1.44306 -1.93429,1.76856 -0.66631,0.27892 -2.27182,0.27528 -2.9178,-0.007 z"
       id="path12"
       sodipodi:nodetypes="csscsccsscccsscccsssssscsscsssccscssscssssssccscccsssssssscc"
       inkscape:export-filename="../../rialopulsemarket/public/logo.svg"
       inkscape:export-xdpi="96"
       inkscape:export-ydpi="96" /></g></svg>
